<?xml version="1.0" encoding="UTF-8" standalone="no"?>
<!DOCTYPE svg PUBLIC "-//W3C//DTD SVG 20010904//EN"
              "http://www.w3.org/TR/2001/REC-SVG-20010904/DTD/svg10.dtd">

<svg xmlns="http://www.w3.org/2000/svg"
     width="0.853333in" height="0.853333in"
     viewBox="0 0 256 256">
  <path id="Selection #1"
        fill="none" stroke="black" stroke-width="1"
        d="M 136.00,65.00
           C 136.00,65.00 167.00,65.00 167.00,65.00
             167.00,65.00 167.00,144.00 167.00,144.00
             167.00,144.00 176.00,144.00 176.00,144.00
             176.00,144.00 176.00,65.00 176.00,65.00
             176.00,65.00 206.00,65.00 206.00,65.00
             206.00,65.00 206.00,144.00 206.00,144.00
             206.00,144.00 215.00,144.00 215.00,144.00
             215.00,144.00 215.00,65.00 215.00,65.00
             215.00,65.00 246.00,65.00 246.00,65.00
             246.00,65.00 246.00,175.00 246.00,175.00
             246.00,175.00 136.00,175.00 136.00,175.00
             136.00,175.00 136.00,65.00 136.00,65.00 Z
           M 40.00,136.00
           C 40.00,136.00 88.00,136.00 88.00,136.00
             88.00,136.00 88.00,144.00 88.00,144.00
             88.00,144.00 40.00,144.00 40.00,144.00
             40.00,144.00 40.00,136.00 40.00,136.00 Z
           M 40.00,96.00
           C 40.00,96.00 88.00,96.00 88.00,96.00
             88.00,96.00 88.00,104.00 88.00,104.00
             88.00,104.00 40.00,104.00 40.00,104.00
             40.00,104.00 40.00,96.00 40.00,96.00 Z
           M 9.00,65.00
           C 9.00,65.00 119.00,65.00 119.00,65.00
             119.00,65.00 119.00,175.00 119.00,175.00
             119.00,175.00 9.00,175.00 9.00,175.00
             9.00,175.00 9.00,65.00 9.00,65.00 Z" />
</svg>
