<?xml version="1.0" encoding="utf-8"?>
<!-- Generator: Adobe Illustrator 16.0.0, SVG Export Plug-In . SVG Version: 6.00 Build 0)  -->
<!DOCTYPE svg PUBLIC "-//W3C//DTD SVG 1.1//EN" "http://www.w3.org/Graphics/SVG/1.1/DTD/svg11.dtd">
<svg version="1.1" id="Layer_1" xmlns="http://www.w3.org/2000/svg" xmlns:xlink="http://www.w3.org/1999/xlink" x="0px" y="0px"
	 width="268.086px" height="158.844px" viewBox="0 0 268.086 158.844" enable-background="new 0 0 268.086 158.844"
	 xml:space="preserve">
<g>
	<g>
		<path d="M12.438,156.555c-0.578,0-0.867,0.265-0.867,0.818v0.435c0,0.698-0.386,1.036-1.132,1.036H1.114
			c-0.675,0-1.012-0.338-1.012-1.013v-14.455c0-0.676,0.337-1.013,1.012-1.013h8.721c0.868,0,1.301,0.386,1.301,1.182v0.385
			c0,0.578,0.289,0.867,0.843,0.867h0.458c0.675,0,1.012,0.386,1.012,1.181v2.482c0,0.649-0.313,0.963-0.916,0.963h-0.289
			c-0.506,0-0.771,0.24-0.771,0.747v0.481c0,0.506,0.265,0.747,0.771,0.747h0.554c0.602,0,0.915,0.361,0.915,1.061v2.986
			c0,0.747-0.265,1.109-0.819,1.109H12.438z M8.414,147.11c0-0.602-0.289-0.915-0.843-0.915h-2c-0.41,0-0.602,0.241-0.602,0.698
			v1.542c0,0.362,0.192,0.53,0.554,0.53h2.144c0.506,0,0.747-0.289,0.747-0.844V147.11z M8.655,153.013
			c0-0.554-0.241-0.843-0.747-0.843H5.523c-0.361,0-0.554,0.192-0.554,0.602v1.494c0,0.458,0.192,0.699,0.602,0.699h2.24
			c0.555,0,0.844-0.29,0.844-0.893V153.013z"/>
		<path d="M32.938,156.41c-0.554,0-0.819,0.241-0.819,0.724v0.578c0,0.747-0.458,1.133-1.35,1.133h-6.938
			c-0.892,0-1.349-0.386-1.349-1.133v-0.578c0-0.482-0.265-0.724-0.819-0.724h-0.361c-0.651,0-0.988-0.408-0.988-1.253v-9.106
			c0-0.843,0.337-1.253,0.988-1.253h0.361c0.555,0,0.819-0.241,0.819-0.723v-0.603c0-0.747,0.458-1.108,1.349-1.108h6.938
			c0.892,0,1.35,0.361,1.35,1.108v0.603c0,0.481,0.265,0.723,0.819,0.723H33.3c0.651,0,0.988,0.41,0.988,1.253v9.106
			c0,0.845-0.337,1.253-0.988,1.253H32.938z M29.397,147.496c0-0.603-0.289-0.892-0.843-0.892h-2.53
			c-0.554,0-0.819,0.289-0.819,0.892v6.192c0,0.602,0.265,0.915,0.819,0.915h2.53c0.554,0,0.843-0.313,0.843-0.915V147.496z"/>
		<path d="M51.319,158.844c-0.747,0-1.108-0.362-1.108-1.085v-3.324c0-0.892-0.434-1.326-1.301-1.326h-2.193
			c-0.361,0-0.554,0.217-0.554,0.651v3.999c0,0.723-0.362,1.085-1.084,1.085h-2.699c-0.723,0-1.084-0.29-1.084-0.893v-14.575
			c0-0.676,0.337-1.013,1.012-1.013h8.529c0.892,0,1.35,0.361,1.35,1.108v0.603c0,0.481,0.265,0.723,0.819,0.723h0.603
			c0.65,0,0.987,0.41,0.987,1.253v2.987c0,0.747-0.313,1.133-0.939,1.133h-0.458c-0.505,0-0.771,0.24-0.771,0.747v0.675
			c0,0.457,0.266,0.698,0.771,0.698h0.651c0.747,0,1.108,0.409,1.108,1.229v4.24c0,0.723-0.362,1.085-1.084,1.085H51.319z
			 M49.44,147.496c0-0.603-0.265-0.892-0.819-0.892h-1.879c-0.385,0-0.578,0.193-0.578,0.604v1.71c0,0.338,0.168,0.506,0.482,0.506
			h1.976c0.554,0,0.819-0.337,0.819-0.988V147.496z"/>
		<path d="M73.652,156.073c-0.554,0-0.819,0.241-0.819,0.724v0.697c0,0.893-0.53,1.351-1.566,1.351h-8.673
			c-0.603,0-0.892-0.29-0.892-0.893v-14.696c0-0.603,0.289-0.892,0.892-0.892h8.673c1.036,0,1.566,0.435,1.566,1.325v0.699
			c0,0.506,0.265,0.747,0.819,0.747h0.65c0.65,0,0.988,0.409,0.988,1.253v8.432c0,0.843-0.337,1.253-0.988,1.253H73.652z
			 M70.423,147.978c0-0.916-0.434-1.374-1.325-1.374h-2.072c-0.313,0-0.458,0.193-0.458,0.554v6.867
			c0,0.385,0.145,0.578,0.458,0.578h2.072c0.892,0,1.325-0.458,1.325-1.397V147.978z"/>
		<path d="M83.335,158.844c-0.675,0-1.012-0.338-1.012-1.013v-14.455c0-0.676,0.337-1.013,1.012-1.013h9.468
			c0.747,0,1.133,0.361,1.133,1.108v1.976c0,0.747-0.386,1.132-1.133,1.132h-4.939c-0.458,0-0.674,0.241-0.674,0.699v0.675
			c0,0.434,0.216,0.65,0.674,0.65h4.77c0.747,0,1.132,0.361,1.132,1.108v1.493c0,0.747-0.385,1.133-1.132,1.133h-4.77
			c-0.458,0-0.674,0.217-0.674,0.65v0.94c0,0.409,0.216,0.602,0.674,0.602h5.276c0.747,0,1.133,0.386,1.133,1.132v2.049
			c0,0.747-0.386,1.133-1.133,1.133H83.335z"/>
		<path d="M111.04,158.844c-0.747,0-1.108-0.362-1.108-1.085v-3.324c0-0.892-0.434-1.326-1.301-1.326h-2.193
			c-0.361,0-0.554,0.217-0.554,0.651v3.999c0,0.723-0.362,1.085-1.084,1.085h-2.699c-0.722,0-1.084-0.29-1.084-0.893v-14.575
			c0-0.676,0.337-1.013,1.012-1.013h8.529c0.892,0,1.349,0.361,1.349,1.108v0.603c0,0.481,0.265,0.723,0.819,0.723h0.603
			c0.65,0,0.988,0.41,0.988,1.253v2.987c0,0.747-0.313,1.133-0.94,1.133h-0.458c-0.506,0-0.771,0.24-0.771,0.747v0.675
			c0,0.457,0.265,0.698,0.771,0.698h0.651c0.747,0,1.108,0.409,1.108,1.229v4.24c0,0.723-0.361,1.085-1.084,1.085H111.04z
			 M109.161,147.496c0-0.603-0.265-0.892-0.819-0.892h-1.879c-0.386,0-0.578,0.193-0.578,0.604v1.71
			c0,0.338,0.168,0.506,0.481,0.506h1.976c0.554,0,0.819-0.337,0.819-0.988V147.496z"/>
		<path d="M147.658,158.844c-0.65,0-0.988-0.362-0.988-1.062v-2.674c0-0.313-0.144-0.458-0.458-0.458h-0.457
			c-0.386,0-0.578-0.216-0.578-0.649v-2.867c0-0.362-0.145-0.555-0.434-0.555h-1.229c-0.289,0-0.435,0.192-0.435,0.555v2.867
			c0,0.434-0.192,0.649-0.578,0.649h-0.458c-0.29,0-0.434,0.169-0.434,0.53v2.771c0,0.603-0.313,0.893-0.963,0.893h-2.916
			c-0.65,0-0.987-0.362-0.987-1.062v-2.553c0-0.41-0.193-0.603-0.579-0.603h-0.626c-0.626,0-0.939-0.361-0.939-1.108v-2.795
			c0-0.409-0.192-0.603-0.578-0.603h-0.41c-0.626,0-0.939-0.386-0.939-1.181v-5.517c0-0.699,0.361-1.061,1.06-1.061h2.458
			c0.699,0,1.061,0.289,1.061,0.892v2.747c0,0.36,0.168,0.554,0.481,0.554h0.386c0.313,0,0.458,0.169,0.458,0.53v3.107
			c0,0.289,0.121,0.435,0.385,0.435h1.157c0.265,0,0.385-0.146,0.385-0.435v-3.107c0-0.361,0.168-0.53,0.481-0.53h0.482
			c0.313,0,0.458-0.193,0.458-0.554v-2.747c0-0.603,0.361-0.892,1.084-0.892h2.168c0.698,0,1.06,0.289,1.06,0.892v2.747
			c0,0.36,0.169,0.554,0.482,0.554h0.458c0.313,0,0.481,0.169,0.481,0.53v3.107c0,0.289,0.12,0.435,0.385,0.435h1.157
			c0.265,0,0.385-0.146,0.385-0.435v-3.107c0-0.361,0.169-0.53,0.482-0.53h0.362c0.313,0,0.457-0.193,0.457-0.554v-2.747
			c0-0.603,0.361-0.892,1.06-0.892h2.458c0.699,0,1.061,0.361,1.061,1.061v5.517c0,0.795-0.313,1.181-0.94,1.181h-0.409
			c-0.386,0-0.578,0.193-0.578,0.603v2.795c0,0.747-0.313,1.108-0.939,1.108h-0.651c-0.36,0-0.554,0.192-0.554,0.603v2.553
			c0,0.699-0.337,1.062-0.988,1.062H147.658z"/>
		<path d="M171.652,158.844c-0.746,0-1.108-0.29-1.108-0.893v-1.902c0-0.289-0.169-0.435-0.481-0.435h-3.276
			c-0.314,0-0.482,0.146-0.482,0.435v1.902c0,0.603-0.361,0.893-1.084,0.893h-2.577c-0.747,0-1.109-0.362-1.109-1.085v-8.818
			c0-0.771,0.313-1.156,0.964-1.156h0.41c0.409,0,0.602-0.217,0.602-0.627v-1.132c0-0.747,0.337-1.107,0.988-1.107h0.626
			c0.41,0,0.604-0.193,0.604-0.603V143.4c0-0.699,0.337-1.036,1.011-1.036h3.397c0.675,0,1.012,0.337,1.012,1.036v0.916
			c0,0.409,0.192,0.603,0.603,0.603h0.626c0.651,0,0.964,0.36,0.964,1.107v1.132c0,0.41,0.217,0.627,0.626,0.627h0.41
			c0.626,0,0.94,0.386,0.94,1.156v8.818c0,0.723-0.362,1.085-1.085,1.085H171.652z M170.616,150.194
			c0-0.313-0.145-0.458-0.409-0.458h-0.241c-0.36,0-0.554-0.216-0.554-0.626v-1.132c0-0.265-0.121-0.41-0.386-0.41h-1.181
			c-0.265,0-0.386,0.146-0.386,0.41v1.132c0,0.41-0.191,0.626-0.554,0.626h-0.241c-0.265,0-0.409,0.169-0.409,0.53v1.301
			c0,0.217,0.145,0.338,0.409,0.338h3.542c0.265,0,0.409-0.145,0.409-0.41V150.194z"/>
		<path d="M183.311,158.844c-0.674,0-1.012-0.338-1.012-1.013v-14.359c0-0.747,0.361-1.108,1.085-1.108h2.697
			c0.724,0,1.084,0.361,1.084,1.108v10.191c0,0.457,0.193,0.698,0.604,0.698h4.77c0.747,0,1.132,0.362,1.132,1.109v2.24
			c0,0.747-0.385,1.133-1.132,1.133H183.311z"/>
		<path d="M201.042,158.844c-0.675,0-1.012-0.338-1.012-1.013v-14.359c0-0.747,0.36-1.108,1.084-1.108h2.697
			c0.724,0,1.085,0.361,1.085,1.108v10.191c0,0.457,0.192,0.698,0.603,0.698h4.77c0.747,0,1.133,0.362,1.133,1.109v2.24
			c0,0.747-0.386,1.133-1.133,1.133H201.042z"/>
		<path d="M218.772,158.844c-0.675,0-1.012-0.338-1.012-1.013v-14.455c0-0.676,0.337-1.013,1.012-1.013h9.469
			c0.746,0,1.132,0.361,1.132,1.108v1.976c0,0.747-0.386,1.132-1.132,1.132h-4.938c-0.458,0-0.676,0.241-0.676,0.699v0.675
			c0,0.434,0.218,0.65,0.676,0.65h4.77c0.747,0,1.132,0.361,1.132,1.108v1.493c0,0.747-0.385,1.133-1.132,1.133h-4.77
			c-0.458,0-0.676,0.217-0.676,0.65v0.94c0,0.409,0.218,0.602,0.676,0.602h5.275c0.747,0,1.132,0.386,1.132,1.132v2.049
			c0,0.747-0.385,1.133-1.132,1.133H218.772z"/>
		<path d="M240.839,158.844c-0.724,0-1.084-0.386-1.084-1.133v-10.167c0-0.458-0.193-0.699-0.603-0.699h-2.36
			c-0.747,0-1.133-0.385-1.133-1.132v-2.241c0-0.747,0.386-1.108,1.133-1.108h10.769c0.771,0,1.157,0.361,1.157,1.108v2.241
			c0,0.747-0.386,1.132-1.157,1.132h-2.337c-0.41,0-0.602,0.241-0.602,0.699v10.167c0,0.747-0.362,1.133-1.109,1.133H240.839z"/>
		<path d="M266.857,156.723c-0.433,0-0.649,0.241-0.649,0.699v0.337c0,0.723-0.387,1.085-1.182,1.085h-7.42
			c-0.723,0-1.084-0.338-1.084-0.988v-0.386c0-0.409-0.24-0.626-0.723-0.626h-0.241c-0.65,0-0.964-0.337-0.964-1.013v-1.372
			c0-0.676,0.337-1.013,0.988-1.013h2.867c0.577,0,0.866,0.266,0.866,0.819v0.289c0,0.361,0.193,0.554,0.556,0.554h2.697
			c0.458,0,0.699-0.265,0.699-0.795v-1.012c0-0.53-0.265-0.795-0.771-0.795h-4.892c-0.723,0-1.084-0.361-1.084-1.084v-0.337
			c0-0.458-0.217-0.676-0.65-0.676h-0.289c-0.626,0-0.94-0.36-0.94-1.084v-3.613c0-0.747,0.338-1.108,0.988-1.108h0.217
			c0.506,0,0.747-0.217,0.747-0.675v-0.506c0-0.699,0.409-1.061,1.229-1.061h6.843c0.843,0,1.253,0.337,1.253,1.013v0.458
			c0,0.433,0.241,0.649,0.747,0.649h0.337c0.602,0,0.916,0.386,0.916,1.133v0.771c0,0.746-0.338,1.107-0.988,1.107h-3.253
			c-0.409,0-0.626-0.217-0.626-0.627v-0.577c0-0.361-0.193-0.53-0.578-0.53h-2.41c-0.433,0-0.649,0.217-0.649,0.627v1.276
			c0,0.506,0.24,0.746,0.747,0.746h4.865c0.795,0,1.182,0.362,1.182,1.061v0.362c0,0.458,0.217,0.674,0.649,0.674h0.314
			c0.602,0,0.915,0.361,0.915,1.085v4.07c0,0.699-0.313,1.061-0.915,1.061H266.857z"/>
	</g>
	<g>
		<path d="M0,7.738v13.818c0,5.157,2.578,7.737,7.738,7.737h21.925h11.64h0.559H79.04c4.235,0,6.446,2.396,6.446,7.003v7.738
			c0,4.238-1.842,6.446-5.711,6.446H47.308h-6.461H29.663H7.738c-4.035,0-6.483,1.586-7.363,4.74C0.25,55.213,0.125,55.205,0,55.196
			v12.053c0,5.158,2.578,7.738,7.738,7.738h21.925h10.138h1.501h40.316c3.868,0,5.711,2.211,5.711,6.449v8.106
			c0,4.605-2.209,6.816-6.447,6.816H47.308h-8.214h-9.431H7.738c-5.16,0-7.738,2.58-7.738,7.738v14.188
			c0,5.157,2.578,7.737,7.738,7.737h21.925h8.798h2.841h59.66c5.715,0,8.662-2.58,8.662-7.923v-3.314
			c0-4.238,2.211-6.266,6.633-6.266h3.5c4.238,0,6.265-2.764,6.265-8.476V77.198c0-5.342-2.396-8.106-7.003-8.106h-4.238
			c-3.869,0-5.895-1.843-5.895-5.712v-3.684c0-3.869,2.025-5.712,5.895-5.712h2.211c4.607,0,7.004-2.396,7.004-7.371V27.637
			c0-6.08-2.58-9.026-7.738-9.026h-3.503c-4.235,0-6.446-2.211-6.446-6.634V9.029c0-6.08-3.318-9.029-9.949-9.029h-53H29.663H7.738
			C2.578,0,0,2.58,0,7.738z"/>
	</g>
	<g>
		<path d="M260.247,0h-13.818c-5.157,0-7.737,2.578-7.737,7.738v21.925v11.64v0.559V79.04c0,4.235-2.396,6.446-7.003,6.446h-7.738
			c-4.238,0-6.446-1.841-6.446-5.71V47.308v-6.461V29.663V7.738c0-4.035-1.586-6.483-4.74-7.363c0.009-0.125,0.017-0.25,0.025-0.375
			h-12.053c-5.158,0-7.738,2.578-7.738,7.738v21.925v10.138v1.501v40.316c0,3.868-2.211,5.711-6.449,5.711h-8.106
			c-4.604,0-6.815-2.209-6.815-6.447V47.308v-8.214v-9.431V7.738c0-5.16-2.58-7.738-7.738-7.738h-14.188
			c-5.158,0-7.738,2.578-7.738,7.738v21.925v8.798v2.841v59.66c0,5.715,2.58,8.662,7.923,8.662h3.315
			c4.238,0,6.265,2.211,6.265,6.633v3.5c0,4.238,2.765,6.265,8.476,6.265h22.846c5.342,0,8.106-2.396,8.106-7.003v-4.238
			c0-3.869,1.843-5.895,5.712-5.895h3.684c3.869,0,5.712,2.025,5.712,5.895v2.211c0,4.607,2.396,7.004,7.371,7.004h18.977
			c6.08,0,9.026-2.58,9.026-7.738v-3.503c0-4.235,2.211-6.446,6.634-6.446h2.947c6.08,0,9.029-3.318,9.029-9.949v-53V29.663V7.738
			C267.985,2.578,265.405,0,260.247,0z"/>
	</g>
</g>
</svg>
